<svg xmlns="http://www.w3.org/2000/svg" viewBox="0 0 183.8 175.8"><g fill-rule="evenodd"><path fill="#0172b2" d="M31.1 110.7V172a1.6 1.6 0 002.5 1.4l23.3-13.5a4.8 4.8 0 002.5-4.2V127a4.9 4.9 0 00-2.5-4.2l-23.3-13.5a1.6 1.6 0 00-2.5 1.4zm-5.3-1.4L2.4 122.8A4.9 4.9 0 000 127v28.7a4.9 4.9 0 002.4 4.2l23.4 13.5a1.6 1.6 0 002.5-1.4v-61.3a1.6 1.6 0 00-2.5-1.4z"/><path fill="#e8a91b" d="M89.5 108.7l-22.4 12.9a.7.7 0 00.4 1.4h48.8a.8.8 0 00.3-1.4l-22.2-13a4.9 4.9 0 00-4.9 0zm-27.3 20v25.5a2 2 0 00.4 2.8l51-29.7a.8.8 0 00-.4-1.5H65a2.8 2.8 0 00-2.8 2.8zm57-1.4l-48.5 28.2a.8.8 0 00.4 1.5h47.7a2.8 2.8 0 002.8-2.8v-25.5a1.6 1.6 0 00-2.4-1.4zm-52.6 34l22.9 13.1a4.8 4.8 0 004.8 0l23-13.2a.7.7 0 00-.5-1.4H67a.8.8 0 00-.4 1.4z"/><path fill="#0172b2" d="M155.6 110.8V172a1.6 1.6 0 002.4 1.4l23.4-13.5a4.9 4.9 0 002.4-4.2v-28.7a4.9 4.9 0 00-2.4-4.2L158 109.4a1.6 1.6 0 00-2.4 1.4zm-5.3-1.4L126.9 123a4.9 4.9 0 00-2.4 4.2v28.7a4.9 4.9 0 002.4 4.2l23.4 13.5a1.6 1.6 0 002.4-1.4v-61.3a1.6 1.6 0 00-2.4-1.4zM62.2 56.7v61.2a1.6 1.6 0 002.5 1.4L88 106a4.9 4.9 0 002.5-4.2V73a4.8 4.8 0 00-2.4-4.2L64.7 55.3a1.6 1.6 0 00-2.5 1.4zM57 55.3L33.6 68.8A4.9 4.9 0 0031 73v28.6a4.8 4.8 0 002.4 4.2L57 119.4a1.6 1.6 0 002.5-1.4V56.7a1.6 1.6 0 00-2.5-1.4zM124.5 56.7V118a1.6 1.6 0 002.4 1.4l23.4-13.5a4.8 4.8 0 002.4-4.2V73a4.9 4.9 0 00-2.4-4.2l-23.4-13.5a1.6 1.6 0 00-2.4 1.4zm-5.3-1.4L95.8 68.8a4.9 4.9 0 00-2.4 4.2v28.7a4.8 4.8 0 002.4 4.2l23.4 13.5a1.6 1.6 0 002.4-1.4V56.7a1.6 1.6 0 00-2.4-1.4zM93.4 2.8v61.3a1.6 1.6 0 002.4 1.4L119.2 52a4.8 4.8 0 002.4-4.2V19a4.9 4.9 0 00-2.4-4.2L95.8 1.4a1.6 1.6 0 00-2.4 1.4zM88 1.4L64.7 14.9a4.9 4.9 0 00-2.5 4.2v28.7a4.9 4.9 0 002.5 4.2L88 65.5a1.6 1.6 0 002.4-1.4V2.8A1.6 1.6 0 0088 1.4z"/></g></svg>